<svg xmlns="http://www.w3.org/2000/svg" viewBox="0 0 481.827 481.827" xml:space="preserve"><path d="M471.827 153.109c-5.523 0-10 4.478-10 10v44.618c-.208-.01-.413-.031-.623-.031H20.371c-.125 0-.247.016-.371.02V87.064c0-5.522-4.477-10-10-10s-10 4.478-10 10v307.699c0 5.522 4.477 10 10 10s10-4.478 10-10v-72.355c.124.004.246.02.371.02h440.833c.21 0 .415-.021.623-.031v72.366c0 5.522 4.477 10 10 10s10-4.478 10-10V163.109c0-5.523-4.477-10-10-10zM444.701 292.59H36.874c-5.523 0-10-4.478-10-10s4.477-10 10-10h407.827c5.523 0 10 4.478 10 10s-4.477 10-10 10z"/><path d="M165.125 180.988c0-15.464-12.536-28-28-28h-78c-15.464 0-28 12.536-28 28v15h134v-15z"/></svg>