<?xml version="1.0" encoding="UTF-8"?>
<svg width="700pt" height="700pt" version="1.1" viewBox="0 0 700 700" xmlns="http://www.w3.org/2000/svg">
 <g>
  <path d="m350 536.67c141.52 0 256.67-115.15 256.67-256.67 0-141.52-115.15-256.67-256.67-256.67s-256.67 115.15-256.67 256.67 115.15 256.67 256.67 256.67zm0-466.67c115.8 0 210 94.219 210 210s-94.195 210-210 210-210-94.219-210-210 94.195-210 210-210z"/>
  <path d="m263.5 366.5c4.5508 4.5508 10.523 6.8359 16.496 6.8359s11.945-2.2852 16.496-6.8359l53.504-53.504 53.504 53.504c4.5508 4.5508 10.523 6.8359 16.496 6.8359s11.945-2.2852 16.496-6.8359c9.125-9.125 9.125-23.871 0-32.992l-53.504-53.504 53.504-53.504c9.125-9.125 9.125-23.871 0-32.992-9.125-9.125-23.871-9.125-32.992 0l-53.504 53.504-53.504-53.504c-9.125-9.125-23.871-9.125-32.992 0-9.125 9.125-9.125 23.871 0 32.992l53.504 53.504-53.504 53.504c-9.125 9.1211-9.125 23.871 0 32.992z"/>
 </g>
</svg>
