<?xml version="1.0" encoding="UTF-8" standalone="no"?>
<svg
   xmlns:dc="http://purl.org/dc/elements/1.1/"
   xmlns:cc="http://creativecommons.org/ns#"
   xmlns:rdf="http://www.w3.org/1999/02/22-rdf-syntax-ns#"
   xmlns:svg="http://www.w3.org/2000/svg"
   xmlns="http://www.w3.org/2000/svg"
   viewBox="0 0 666.66669 666.66669"
   height="666.66669"
   width="666.66669"
   xml:space="preserve"
   id="svg2"
   version="1.1"><metadata
     id="metadata8"><rdf:RDF><cc:Work
         rdf:about=""><dc:format>image/svg+xml</dc:format><dc:type
           rdf:resource="http://purl.org/dc/dcmitype/StillImage" /></cc:Work></rdf:RDF></metadata><defs
     id="defs6"><clipPath
       id="clipPath18"
       clipPathUnits="userSpaceOnUse"><path
         id="path16"
         d="M 0,500 H 500 V 0 H 0 Z" /></clipPath></defs><g
     transform="matrix(1.3333333,0,0,-1.3333333,0,666.66667)"
     id="g10"><g
       id="g12"><g
         clip-path="url(#clipPath18)"
         id="g14"><g
           transform="translate(439.1875,249.9995)"
           id="g20"><path
             id="path22"
             style="fill:#3c5b9a;fill-opacity:1;fill-rule:evenodd;stroke:none"
             d="m 0,0 c 0,-104.484 -84.705,-189.187 -189.188,-189.187 -104.487,0 -189.187,84.703 -189.187,189.187 0,104.487 84.7,189.187 189.187,189.187 C -84.705,189.187 0,104.487 0,0" /></g><g
           transform="translate(220.353,192.9023)"
           id="g24"><path
             id="path26"
             style="fill:#fefefe;fill-opacity:1;fill-rule:evenodd;stroke:none"
             d="m 0,0 c 0,17.705 -0.068,35.41 0.063,53.113 0.025,2.985 -0.819,3.919 -3.804,3.797 -5.517,-0.224 -11.049,0.023 -16.573,-0.105 -2.237,-0.056 -3.061,0.564 -3.037,2.933 0.112,11.046 0.101,22.098 0.012,33.147 -0.02,2.125 0.62,2.824 2.769,2.777 5.648,-0.13 11.308,0.158 16.946,-0.121 3.268,-0.161 3.944,1.001 3.876,4.033 -0.197,8.407 -0.197,16.827 -0.013,25.235 0.225,10.269 2.981,19.857 9.098,28.206 7.74,10.574 18.745,15.408 31.441,15.975 13.039,0.579 26.111,0.258 39.166,0.398 1.82,0.021 2.363,-0.63 2.355,-2.399 -0.058,-11.173 -0.07,-22.35 0.008,-33.524 0.018,-1.987 -0.631,-2.595 -2.582,-2.564 -6.279,0.098 -12.558,0.05 -18.834,0.033 -8.357,-0.026 -13.359,-4.325 -13.883,-12.598 -0.42,-6.631 -0.113,-13.303 -0.267,-19.955 -0.057,-2.369 1.351,-2.207 2.92,-2.205 9.541,0.015 19.086,-0.094 28.627,0.069 2.8,0.048 3.724,-0.596 3.404,-3.544 -1.201,-11.102 -2.233,-22.225 -3.184,-33.354 -0.216,-2.512 -1.363,-2.99 -3.619,-2.953 -7.527,0.116 -15.062,0.08 -22.596,0.032 -5.41,-0.032 -4.884,0.793 -4.884,-4.725 -0.026,-34.654 -0.073,-69.31 0.076,-103.965 0.015,-3.66 -0.92,-4.568 -4.541,-4.504 -12.93,0.239 -25.867,0.25 -38.798,-0.005 -3.643,-0.073 -4.243,1.164 -4.214,4.414 C 0.07,-34.906 0,-17.455 0,0" /></g></g></g></g></svg>