<svg xmlns="http://www.w3.org/2000/svg" viewBox="0 0 181.587 181.587" xml:space="preserve"><path d="M178.953 81.649 95.985 2.087a7.499 7.499 0 0 0-10.382 0L2.634 81.649a7.5 7.5 0 0 0 5.191 12.913h9.094v79.525a7.5 7.5 0 0 0 7.5 7.5h132.75a7.5 7.5 0 0 0 7.5-7.5V94.562h9.094a7.5 7.5 0 0 0 5.19-12.913zm-67.972 45.763c-10.47 7.762-17.469 10.485-20.187 11.337-2.718-.852-9.717-3.575-20.187-11.336-12.821-9.506-13.036-18.895-12.231-26.947.591-5.914 4.89-12.279 12.931-12.279 8.218 0 13.35 6.348 13.521 6.563 1.419 1.861 3.604 2.982 5.944 2.982a7.434 7.434 0 0 0 5.944-2.927c.214-.271 5.346-6.618 13.564-6.618 8.04 0 12.339 6.365 12.931 12.279.805 8.052.59 17.441-12.23 26.946z"/></svg>