<?xml version="1.0" encoding="UTF-8"?>
<svg version="1.1" viewBox="0 0 700 700" xmlns="http://www.w3.org/2000/svg">
 <path d="m350 46.668c-61.883 0-121.23 24.582-164.99 68.34-43.758 43.758-68.34 103.11-68.34 164.99s24.582 121.23 68.34 164.99c43.758 43.758 103.11 68.34 164.99 68.34s121.23-24.582 164.99-68.34c43.758-43.758 68.34-103.11 68.34-164.99 0-40.957-10.781-81.195-31.258-116.67-20.48-35.469-49.938-64.926-85.406-85.406-35.473-20.477-75.711-31.258-116.67-31.258zm132.44 192.2-140 128.33c-4.4336 4.0664-10.266 6.2617-16.277 6.1328-6.0117-0.13281-11.742-2.5781-15.992-6.832l-70-70c-4.5039-4.3477-7.0703-10.32-7.125-16.578-0.054687-6.2617 2.4102-12.277 6.832-16.703 4.4258-4.4258 10.445-6.8867 16.703-6.8359 6.2578 0.054688 12.234 2.6211 16.582 7.125l54.203 54.203 123.53-113.24c6.1445-5.6328 14.824-7.5625 22.777-5.0586 7.9531 2.5 13.965 9.0547 15.773 17.195 1.8086 8.1367-0.86328 16.621-7.0039 22.258z"/>
</svg>
